<svg xmlns="http://www.w3.org/2000/svg" width="571.575" height="709.12" viewBox="0 0 571.575 709.12">
  <g id="Group_65" data-name="Group 65" transform="translate(-1069.612 -196.88)">
    <g id="Group_2" data-name="Group 2">
      <path id="Path_41" data-name="Path 41" d="M209.509,303.254c-8.562-4.943-15.511-.982-15.511,8.831s6.928,21.788,15.511,26.731,15.511.982,15.511-8.841S218.061,308.156,209.509,303.254Zm0,30.909c-6.318-3.65-11.447-12.481-11.447-19.741s5.17-10.165,11.447-6.515,11.437,12.481,11.437,19.73S215.827,337.813,209.509,334.163Z" transform="translate(1003.016 93.472)" fill="#e27234"/>
      <path id="Path_42" data-name="Path 42" d="M228.214,334.672v-11l-7.766-7.073a52.368,52.368,0,0,0-2.068-6.866l3.9-5.874-6.784-11.7-7.073.393a51.69,51.69,0,0,0-4.964-5.17l-2.244-10.217-9.6-5.532-5.17,3.164,2.906,4.447a17.817,17.817,0,0,0-4.953-.507l-7.073-8.562L170.544,274l3.909,10.341a17.187,17.187,0,0,0-2.068,4.509l-7.776-1.913-5.243,3.185,13.019,14.891a51.925,51.925,0,0,0,2.068,6.866l-3.909,5.9,6.794,11.7,7.073-.393a51.7,51.7,0,0,0,4.953,5.17l6.618,18.768,5.17-3.009L203.4,342.4a17.51,17.51,0,0,0,4.964.507l7.073,8.572,6.784-3.867-3.9-10.341a17.031,17.031,0,0,0,2.068-4.509l2.513,4.933ZM196.4,323.938c-6.308-3.64-11.375-12.471-11.375-19.72s5.17-10.165,11.437-6.515,11.427,12.471,11.427,19.72S202.745,327.588,196.4,323.938Z" transform="translate(1014.909 104.1)" fill="#417a87"/>
      <path id="Path_43" data-name="Path 43" d="M180.32,320.754l-3.93,5.873,6.794,11.7a95.9,95.9,0,0,1,21.6-4.405,12.8,12.8,0,0,1-2.533-1.138c-6.308-3.64-11.375-12.471-11.375-19.72,0-3.836,1.437-6.453,3.723-7.528a33.639,33.639,0,0,0-8.366-7.083A18.149,18.149,0,0,0,179,295.926c-.228.579-.455,1.169-.641,1.8v16.163a51.923,51.923,0,0,0,1.965,6.866Z" transform="translate(1009.063 95.257)" fill="#3f585e"/>
      <path id="Path_44" data-name="Path 44" d="M222.935,339.333v-11L215.7,321.32a57.654,57.654,0,0,0-2.389-7.125l3.671-5.667-6.794-11.706-7.073.393a51.714,51.714,0,0,0-4.953-5.17l-2.244-10.217-9.6-5.532-2.244,7.621a17.58,17.58,0,0,0-4.964-.517l-7.073-8.562-6.784,3.867,3.9,10.341a17.185,17.185,0,0,0-2.068,4.509l-7.766-1.913v11l7.766,7.063a51.917,51.917,0,0,0,2.068,6.866l-3.9,5.874,6.784,11.7,7.073-.393a52.842,52.842,0,0,0,4.953,5.17l2.254,10.217,9.6,5.543,2.244-7.621a17.435,17.435,0,0,0,4.953.507l7.073,8.572,6.794-3.867-3.909-10.341a17.031,17.031,0,0,0,2.068-4.509ZM191.209,328.6c-6.318-3.64-11.437-12.471-11.437-19.72s5.17-10.155,11.437-6.515,11.375,12.471,11.375,19.72S197.465,332.219,191.209,328.6Z" transform="translate(1014.926 102.499)" fill="#3284c8"/>
      <path id="Path_45" data-name="Path 45" d="M214.23,317.576c-.321-1.034-.683-2.12-1.034-3.185l2.616-3.919c.145-1.169.258-2.358.331-3.6l-5.832-10.051-7.073.393a51.708,51.708,0,0,0-4.953-5.17l-2.244-10.217-9.6-5.532-2.244,7.621a17.58,17.58,0,0,0-4.964-.517l-7.073-8.562-6.784,3.867,3.9,10.341a17.186,17.186,0,0,0-2.068,4.509l-7.766-1.913v11l7.766,7.063a51.924,51.924,0,0,0,2.068,6.866l-3.288,4.953a60.757,60.757,0,0,0,10.734,8.035C194.189,339.664,209.028,334.122,214.23,317.576Zm-22.977-15.211c6.308,3.65,11.427,12.471,11.427,19.72s-5.17,10.134-11.427,6.515-11.437-12.471-11.437-19.72S184.882,298.725,191.252,302.365Z" transform="translate(1014.882 102.499)" fill="#a2e9f4"/>
      <path id="Path_46" data-name="Path 46" d="M215.248,318.573c-.331-1.034-.683-2.13-1.034-3.185l3.63-6.2-7.1-11.84-6.484.889a51.7,51.7,0,0,0-4.964-5.17l-2.244-10.217-9.586-5.6-2.254,7.621a17.435,17.435,0,0,0-4.953-.507l-7.073-8.572-6.794,3.867,3.909,10.341a17.115,17.115,0,0,0-2.068,4.5l-7.776-1.9V303.6l7.776,7.063a52.385,52.385,0,0,0,2.068,6.866l-3.288,4.943a60.33,60.33,0,0,0,10.734,8.045C195.207,340.661,210.046,335.118,215.248,318.573Zm-23.039-15.211c6.318,3.64,11.437,12.471,11.437,19.72s-5.17,10.155-11.437,6.515-11.375-12.471-11.375-19.72S185.9,299.711,192.209,303.362Z" transform="translate(1014.536 102.175)" fill="#52a4e9"/>
      <path id="Path_47" data-name="Path 47" d="M199.776,308.462c-8.552-4.943-15.511-1.034-15.511,8.831s6.939,21.778,15.511,26.72,15.511,1.034,15.511-8.831S208.338,313.395,199.776,308.462Zm0,33.535c-7.6-4.384-13.764-15.025-13.764-23.784s6.2-12.243,13.764-7.859,13.784,15.035,13.784,23.784S207.387,346.434,199.776,342Z" transform="translate(1006.359 91.687)" fill="#ed974a"/>
      <path id="Path_48" data-name="Path 48" d="M200.348,309.338c-8.18-4.85-14.808-.972-14.808,8.676s6.628,21.405,14.808,26.266,14.8.962,14.8-8.686S208.487,314.188,200.348,309.338Zm0,30.371c-6.039-3.588-10.93-12.275-10.93-19.389s4.891-10,10.93-6.411,10.93,12.264,10.93,19.389S206.418,343.287,200.348,339.709Z" transform="translate(1005.921 91.369)" fill="#ed974a"/>
      <path id="Path_49" data-name="Path 49" d="M198.878,309.368c-8.562-4.932-15.511-.982-15.511,8.841s6.939,21.778,15.511,26.721,15.511.982,15.511-8.831S207.43,314.31,198.878,309.368Zm0,30.909c-6.329-3.65-11.447-12.44-11.447-19.678s5.17-10.175,11.447-6.525,11.437,12.481,11.437,19.741-5.119,10.113-11.437,6.432Z" transform="translate(1006.667 91.371)" fill="#f9d45f"/>
    </g>
    <g id="Group_3" data-name="Group 3">
      <path id="Path_51" data-name="Path 51" d="M624.033,352.56a9.515,9.515,0,0,0,.258,1.313,1.268,1.268,0,0,0,.052.186,10.842,10.842,0,0,0,1.117,2.554l.134.217a13.7,13.7,0,0,0,1.9,2.358l.248.248c.393.372.8.745,1.241,1.1h0c.434.341.9.672,1.4,1.034l.372.248a18.622,18.622,0,0,0,1.624.951c8.738,4.684,21.612,5.346,32.056,2.223l52.665,28.2-.052.124c-.155.352-.3.693-.424,1.034a1.18,1.18,0,0,1-.134.362c-.124.362-.228.714-.331,1.034a.525.525,0,0,1-.083.341q-.1.434-.186.869a1.205,1.205,0,0,1-.073.507,3,3,0,0,0-.083.734c-.021.248,0,.6,0,.9v1.489a10.328,10.328,0,0,0,.269,1.479v.134a10.556,10.556,0,0,0,2.854,4.829h0a14.192,14.192,0,0,0,1.758,2.068l.269.258c.2.176.383.362.589.538s.507.424.776.631l.527.393c.279.2.579.4.889.6l.4.269c.434.269.889.538,1.365.786,6.9,3.7,16.4,4.891,25.242,3.692l-.145-.083h.258c-.341-3.257-.3-3.63-.383-4.943l-13.867-7.425,18.117-10.972,18.51,9.886a8.881,8.881,0,0,0,.248-1.034.647.647,0,0,1,0-.134,8.894,8.894,0,0,0,.124-.9h0a8.514,8.514,0,0,0,0-1.985v-2.327a4.128,4.128,0,0,0-.072-.941v-.176l-.093-.8v-.29a4.307,4.307,0,0,0-.114-.745v-.186a3.757,3.757,0,0,0-.165-.838.96.96,0,0,1,0-.165c-.052-.207-.1-.4-.165-.589a1.27,1.27,0,0,0-.052-.186,5.648,5.648,0,0,0-.227-.6c-1.241-2.7-3.754-5.222-7.549-7.239-8.728-4.674-21.612-5.336-32.056-2.223l-53.069-28.282a9.79,9.79,0,0,0,.352-1.417c0-.062,0-.114,0-.176a9.271,9.271,0,0,0,.114-1.313v-.2a9.223,9.223,0,0,0-.476-2.926v-.186a8.593,8.593,0,0,0,.134-.879v-1.52a5.945,5.945,0,0,0-.1-.941v-.269q-.093-.455-.217-.9l-.124-.372c-.083-.248-.166-.476-.269-.713l-.155-.372a8.988,8.988,0,0,0-.5-.931,1.22,1.22,0,0,0-.114-.2c-.186-.3-.383-.6-.6-.889l-.258-.341c-.186-.227-.372-.455-.579-.682l-.3-.321a12.425,12.425,0,0,0-.91-.889l-.114-.114c-.331-.279-.672-.558-1.034-.838l-.383-.279c-.29-.217-.6-.424-.91-.631l-.4-.259c-.455-.279-.91-.548-1.4-.817-6.908-3.692-16.411-4.891-25.242-3.681l.31,4.984h-.041l13.867,7.435-18.117,10.972-18.437-9.875c-.093.321-.176.641-.259,1.034s-.1.527-.145.8a1.932,1.932,0,0,0,0,.238c-.062.341-.1.7-.134,1.034h0a17.408,17.408,0,0,0,.5,5.9Z" transform="translate(855.532 83.699)" fill="#72574e" opacity="0.3"/>
    </g>
    <g id="Group_4" data-name="Group 4">
      <path id="Path_9" data-name="Path 9" d="M747.312,608.948c3.185-1.841,3.164-4.829,0-6.67a12.76,12.76,0,0,0-11.561,0c-3.185,1.83-3.164,4.819,0,6.67A12.74,12.74,0,0,0,747.312,608.948Z" transform="translate(817.792 -9.471)" fill="#94b2bf"/>
      <path id="Path_11" data-name="Path 11" d="M385.918,720.632l-.724-.424L260.806,648.391l1.437-2.492,123.675,71.4L580.594,604.908l1.437,2.492Z" transform="translate(980.074 -10.849)" fill="#94b2bf"/>
      <g id="Group_58" data-name="Group 58">
        <g id="Group_57" data-name="Group 57">
          <path id="Path_8" data-name="Path 8" d="M798.549,930.955c3.185-1.831,3.164-4.819,0-6.67a12.739,12.739,0,0,0-11.551,0c-3.185,1.841-3.164,4.819,0,6.67A12.74,12.74,0,0,0,798.549,930.955Z" transform="translate(800.193 -120.05)" fill="#94b2bf"/>
          <path id="Path_10" data-name="Path 10" d="M707,878.919,534.462,779.255l1.437-2.492,172.546,99.613Z" transform="translate(886.098 -69.865)" fill="#94b2bf"/>
          <rect id="Rectangle_5" data-name="Rectangle 5" width="657.558" height="4.116" transform="matrix(0.866, -0.5, 0.5, 0.866, 1069.612, 902.435)" fill="#94b2bf"/>
          <path id="Path_12" data-name="Path 12" d="M207.033,935.757l-2.058-3.568,208.79-120.542,149.165,86.118-2.058,3.568L413.765,816.4Z" transform="translate(999.247 -81.845)" fill="#dbc879"/>
          <path id="Path_13" data-name="Path 13" d="M128.571,883.291l-2.058-3.568L317.486,769.459,232.3,720.279l2.058-3.568,91.371,52.748Z" transform="translate(1026.191 -49.243)" fill="#94b2bf"/>
          <path id="Path_192" data-name="Path 192" d="M210.71,997.086c3.185-1.841,3.175-4.819,0-6.67a12.76,12.76,0,0,0-11.561,0c-3.175,1.83-3.164,4.819,0,6.67a12.741,12.741,0,0,0,11.561,0Z" transform="translate(1002.064 -142.76)" fill="#dbc879"/>
          <path id="Path_193" data-name="Path 193" d="M130.219,966.769c3.185-1.841,3.164-4.829,0-6.67a12.739,12.739,0,0,0-11.551,0c-3.185,1.83-3.164,4.819,0,6.67A12.791,12.791,0,0,0,130.219,966.769Z" transform="translate(1029.703 -132.349)" fill="#94b2bf"/>
          <path id="Path_194" data-name="Path 194" d="M753.06,947.161c3.185-1.83,3.164-4.819,0-6.67a12.761,12.761,0,0,0-11.561,0c-3.185,1.841-3.164,4.819,0,6.67A12.739,12.739,0,0,0,753.06,947.161Z" transform="translate(815.818 -125.616)" fill="#dbc879"/>
        </g>
        <path id="Path_196" data-name="Path 196" d="M290.369,719.772c3.185-1.841,3.164-4.829,0-6.68a12.791,12.791,0,0,0-11.561,0c-3.175,1.83-3.164,4.819,0,6.67A12.8,12.8,0,0,0,290.369,719.772Z" transform="translate(974.708 -47.526)" fill="#94b2bf"/>
      </g>
      <path id="Path_197" data-name="Path 197" d="M270.575,673.772c3.185-1.841,3.164-4.829,0-6.67a12.74,12.74,0,0,0-11.551,0c-3.185,1.83-3.164,4.819,0,6.67a12.823,12.823,0,0,0,11.551,0Z" transform="translate(981.503 -31.732)" fill="#94b2bf"/>
    </g>
    <path id="Path_2" data-name="Path 2" d="M544.341,584.5v-4.922L333.389,266.307l-64.433-37.041c-10.878-6.266-19.647-1.241-19.647,11.22v8.759L387.048,494.073Z" transform="translate(984.022 119.075)" fill="#666158"/>
    <g id="Group_5" data-name="Group 5">
      <g id="Group_64" data-name="Group 64">
        <path id="Path_53" data-name="Path 53" d="M247.167,225.331c0-6.329,16.773-15.914,20.382-17.983s8.6-1.737,14.125,1.448L541.113,357.89c11.023,6.37,19.968,21.788,19.968,34.435v203.63c0,4.746-1.262,8.428-3.412,10.837-3.588,4.023-18.686,16.762-25.573,12.781L281.674,458.257c-11.023-6.37-19.968-21.788-19.968-34.435Z" transform="translate(984.758 126.123)" fill="#cca96a"/>
        <g id="Group_63" data-name="Group 63" transform="translate(2 2)">
          <g id="Group_62" data-name="Group 62">
            <g id="Group_60" data-name="Group 60">
              <path id="Path_57" data-name="Path 57" d="M403.351,739.715v-4.333l46.14-22.75c3.1-1.779,5.481-6.732,4.333-10.093l-26.183-83.977,61.786,33.814,28.365,83.129c1.313,3.857-1.3,9.307-4.829,11.375l-48.715,28.127Z" transform="translate(931.123 -15.538)" fill="#4a463c"/>
              <path id="Path_58" data-name="Path 58" d="M403.178,734.878l44.631-25.769a7.414,7.414,0,0,0,3.309-8.821l-26.431-82.623,60.762,35.076,28.375,80.948a8.51,8.51,0,0,1-3.805,10.124L464.354,770.4Z" transform="translate(931.182 -15.23)" fill="#6e6b64"/>
              <path id="Path_59" data-name="Path 59" d="M464.306,819.755l39.564-23.039-61.186-35.324L403.13,784.234Z" transform="translate(931.199 -64.587)" fill="#8b8881"/>
              <path id="Path_60" data-name="Path 60" d="M525.222,738.393a8.6,8.6,0,0,0-.207-4.705l-28.365-80.947-60.762-35.076,24.022,75.064Z" transform="translate(919.949 -15.23)" fill="#595449"/>
            </g>
            <g id="Group_61" data-name="Group 61">
              <path id="Path_54" data-name="Path 54" d="M507.122,700.545,620.415,773c6.9,3.981,22.946-8.759,26.535-12.781,2.151-2.409,3.412-6.091,3.412-10.837V652.833C620.808,664.425,557.451,685.8,507.122,700.545Z" transform="translate(895.487 -27.307)" fill="#c2c3c5"/>
              <path id="Path_55" data-name="Path 55" d="M506.244,395.16l46.533-26.214a38.634,38.634,0,0,0-11.654-11.054L420.5,288.576,281.674,208.8c-5.522-3.185-10.506-3.506-14.125-1.448s-20.382,11.654-20.382,17.983l14.539,198.481c0,12.647,8.945,28.065,19.968,34.435L508.923,606.577Z" transform="translate(984.758 126.121)" fill="#d8dbdc"/>
              <path id="Path_56" data-name="Path 56" d="M420.954,288.805,281.674,208.8c-5.522-3.185-10.506-3.506-14.125-1.448s-20.382,11.654-20.382,17.983l9.917,135.33C294.4,322.547,353.1,295.713,420.954,288.805Z" transform="translate(984.758 126.121)" fill="#e6e6e6"/>
              <path id="Path_61" data-name="Path 61" d="M245.986,236.727c0-12.647,8.924-17.745,19.958-11.375l259.45,149.1c11.013,6.37,19.958,21.788,19.958,34.435V612.5c0,12.647-8.945,17.745-19.958,11.375L265.943,474.782c-11.023-6.36-19.958-21.778-19.958-34.424Z" transform="translate(985.163 120.435)" fill="#e6e6e6"/>
              <path id="Path_62" data-name="Path 62" d="M540.884,624.354,356.642,277.463l-90.7-52.107c-11.034-6.36-19.958-1.262-19.958,11.375v12.854l97.369,269.7,182,104.617C531.649,627.5,537.223,627.415,540.884,624.354Z" transform="translate(985.163 120.432)" fill="#ececec"/>
              <path id="Path_63" data-name="Path 63" d="M245.986,413.626v-176.9c0-12.647,8.924-17.745,19.958-11.375l259.45,149.1c11.013,6.37,19.958,21.788,19.958,34.435V585.769Z" transform="translate(985.163 120.435)" fill="#595449"/>
              <path id="Path_65" data-name="Path 65" d="M259.215,236.284l280.71,161.709-.3,186.413L259.4,423.3Z" transform="translate(980.62 115.739)" fill="#fff"/>
            </g>
          </g>
          <path id="Path_69" data-name="Path 69" d="M426.408,646l35.758,20.64v3.816L426.408,649.8Z" transform="translate(923.205 -24.96)" fill="#595449"/>
          <path id="Path_70" data-name="Path 70" d="M495.857,687.71a5.17,5.17,0,0,0-2.347-4.054c-1.3-.755-2.358-.155-2.358,1.334a5.17,5.17,0,0,0,2.358,4.054C494.8,689.8,495.857,689.2,495.857,687.71Z" transform="translate(900.971 -37.78)" fill="#595449"/>
          <path id="Path_71" data-name="Path 71" d="M416.624,643.584a5.171,5.171,0,0,0-2.347-4.054c-1.3-.744-2.358-.145-2.358,1.344a5.17,5.17,0,0,0,2.358,4.054C415.569,645.684,416.624,645.074,416.624,643.584Z" transform="translate(928.181 -22.629)" fill="#595449"/>
        </g>
      </g>
      <g id="Group_2-2" data-name="Group 2" transform="translate(1320.974 483.992)">
        <path id="Path_73" data-name="Path 73" d="M495.792,525.536l-82.55-47.661v5.263l82.55,47.661Z" transform="translate(-413.241 -477.876)" fill="#c4c0ae"/>
        <path id="Path_74" data-name="Path 74" d="M495.792,544.341l-82.55-47.661v5.263l82.55,47.661Z" transform="translate(-413.241 -484.333)" fill="#c4c0ae"/>
        <path id="Path_75" data-name="Path 75" d="M495.792,565.728l-82.55-47.661v5.263l82.55,47.66Z" transform="translate(-413.241 -491.678)" fill="#c4c0ae"/>
        <path id="Path_76" data-name="Path 76" d="M495.792,587.772,413.241,540.1v5.274l82.55,47.661Z" transform="translate(-413.241 -499.244)" fill="#c4c0ae"/>
        <path id="Path_77" data-name="Path 77" d="M546.764,514.472l-13.608-7.838.01,12.616,13.6,7.849Z" transform="translate(-454.421 -487.751)" fill="#e87256"/>
        <path id="Path_78" data-name="Path 78" d="M523.423,500.859l-13.608-7.849.01,12.626,13.6,7.838Z" transform="translate(-446.405 -483.073)" fill="#abbc46"/>
      </g>
    </g>
    <path id="Path_3" data-name="Path 3" d="M601.286,349.86,599.27,348.7v.083C599.932,349.115,600.6,349.487,601.286,349.86Z" transform="translate(863.843 77.134)" fill="#edddb0"/>
    <g id="Group_6" data-name="Group 6">
      <path id="Path_81" data-name="Path 81" d="M695.25,424.234l-51.735,32.532-37.6,84.577,89.334,51.58Z" transform="translate(861.561 51.195)" fill="#ce9d6b"/>
      <g id="Group_55" data-name="Group 55">
        <path id="Path_80" data-name="Path 80" d="M693.06,397.257l-89.334-51.58-4.188,2.4,4.188,166.29,89.334,51.58Z" transform="translate(863.751 78.172)" fill="#e8b587"/>
        <path id="Path_82" data-name="Path 82" d="M688.6,400.281,599.27,348.7V517.39L688.6,568.97Z" transform="translate(863.843 77.134)" fill="#f2e3bd"/>
        <path id="Path_84" data-name="Path 84" d="M682.446,467.923q4.343,10.527,7.931,20.682V401.3l-85.942-49.636C627.723,365.839,659.3,411.742,682.446,467.923Z" transform="translate(862.069 76.117)" fill="#edddb0"/>
        <path id="Path_85" data-name="Path 85" d="M599.27,548.9v37.227L625.029,601A446.3,446.3,0,0,1,599.27,548.9Z" transform="translate(863.843 8.383)" fill="#edddb0"/>
      </g>
    </g>
    <g id="Group_7" data-name="Group 7">
      <path id="Path_90" data-name="Path 90" d="M774.425,534.926,746.95,478.818l6.194-3.288,21.281,12.3Z" transform="translate(813.129 33.58)" fill="#b2a82b"/>
      <path id="Path_91" data-name="Path 91" d="M767.721,541.708l33.339-26.586-33.339-65.074-6.266,2.761,3.764,31.539-3.764,60.286Z" transform="translate(808.148 42.331)" fill="#998d20"/>
      <path id="Path_92" data-name="Path 92" d="M801.06,515.121l-33.339-65.074-6.266,2.761,18.634,71.537Z" transform="translate(808.148 42.331)" fill="#b2a82b"/>
      <path id="Path_93" data-name="Path 93" d="M789.648,519.348,756.31,454.284v22.274l-9.6-5.543v47.1l9.6,5.543v22.274Z" transform="translate(813.21 40.876)" fill="#d6ce3c"/>
      <path id="Path_94" data-name="Path 94" d="M757.706,494.551c10.517,6.07,20.04,16.545,27.01,28.737l4.933-3.94L756.31,454.284v22.284l-9.6-5.543v19.089A39.521,39.521,0,0,1,757.706,494.551Z" transform="translate(813.21 40.876)" fill="#efe056"/>
    </g>
    <g id="Group_8" data-name="Group 8">
      <path id="Path_95" data-name="Path 95" d="M575.272,398.735l6.442-3.63V348l-21.281-12.3Z" transform="translate(877.18 81.596)" fill="#ce3925"/>
      <path id="Path_96" data-name="Path 96" d="M567.012,403.729l-6.173,4.343-15.273-72.189,15.077-19.244,6.36-4.571Z" transform="translate(882.285 89.714)" fill="#ce3925"/>
      <path id="Path_97" data-name="Path 97" d="M561.128,393.035v-47.1l-9.607-5.543V318.117l-33.328,26.576,33.328,65.074V387.493Z" transform="translate(891.685 87.637)" fill="#f46058"/>
      <path id="Path_98" data-name="Path 98" d="M527.123,340.024c12.667,4.136,26.152,14.477,37.072,27.682V345.939l-9.607-5.543V318.132Z" transform="translate(888.619 87.632)" fill="#ff7f6e"/>
    </g>
    <path id="Path_4" data-name="Path 4" d="M305.919,164.06a1.427,1.427,0,0,0,.372-1.034,4.064,4.064,0,0,0-1.81-3.175,1.437,1.437,0,0,0-1.034-.228l-4.736,2.751a1.447,1.447,0,0,0-.331,1.034,4.064,4.064,0,0,0,1.8,3.082,1.4,1.4,0,0,0,1.127.207Z" transform="translate(967.172 142.071)" fill="#f7d166"/>
    <path id="Path_5" data-name="Path 5" d="M302.038,166.759a4.074,4.074,0,0,0-1.861-3.1c-1.034-.589-1.81-.124-1.81,1.034a4.064,4.064,0,0,0,1.81,3.1C301.18,168.424,302.038,167.959,302.038,166.759Z" transform="translate(967.175 140.767)" fill="#f7d166"/>
    <path id="Path_6" data-name="Path 6" d="M314.92,143.7l4.405-2.647,3.805-.176-4.416,2.575Z" transform="translate(961.491 148.503)" fill="#76bdf8"/>
    <g id="Group_9" data-name="Group 9">
      <path id="Path_143" data-name="Path 143" d="M297.769,140.543c-7.187-4.136-13.009-.827-13.009,7.414s5.822,18.272,13.009,22.419,13,.827,13-7.4S304.945,144.689,297.769,140.543Zm0,25.935c-5.3-3.1-9.607-10.475-9.607-16.545s4.3-8.531,9.607-5.47,9.6,10.465,9.6,16.545S303.063,169.538,297.769,166.477Z" transform="translate(971.848 149.229)" fill="#7593a0"/>
      <path id="Path_144" data-name="Path 144" d="M313.5,166.939v-9.307l-6.525-5.936a43.427,43.427,0,0,0-1.717-5.76l3.278-4.85-5.7-9.824-5.936.331a43.978,43.978,0,0,0-4.136-4.374l-1.882-8.562L282.829,114l-4.312,2.668,2.409,3.733a14.714,14.714,0,0,0-4.136-.434l-5.936-7.239-4.416,2.554,2,9.4a14.219,14.219,0,0,0-1.686,3.774l-6.525-1.6-4.395,2.678,10.92,12.492a43.444,43.444,0,0,0,1.717,5.76L265.2,152.71l5.687,9.824,5.936-.331a46.538,46.538,0,0,0,4.136,4.374l5.532,15.77,4.405-2.554,1.882-6.4a14.746,14.746,0,0,0,4.136.434l5.936,7.239,5.7-3.247-3.278-8.707a14.365,14.365,0,0,0,1.717-3.774l2.068,4.136Zm-26.669-9.007c-5.294-3.1-9.586-10.465-9.586-16.545s4.291-8.572,9.6-5.47,9.586,10.465,9.586,16.545-4.291,8.479-9.6,5.419Z" transform="translate(981.783 158.168)" fill="#236fae"/>
      <path id="Path_145" data-name="Path 145" d="M273.286,155.251l-3.268,4.922L275.706,170a80.588,80.588,0,0,1,18.127-3.7,10.826,10.826,0,0,1-2.13-.951c-5.294-3.1-9.586-10.465-9.586-16.545,0-3.216,1.2-5.419,3.1-6.318a28.138,28.138,0,0,0-7.021-5.946,15.345,15.345,0,0,0-6.111-2.068c-.2.486-.383,1.034-.538,1.51v13.515A43.423,43.423,0,0,0,273.286,155.251Z" transform="translate(976.91 150.704)" fill="#3f585e"/>
      <path id="Path_146" data-name="Path 146" d="M309.068,170.771v-9.234l-6.525-5.925a43.11,43.11,0,0,0-1.717-5.77l3.278-4.922-5.7-9.813-5.936.331a42.881,42.881,0,0,0-4.136-4.374l-1.882-8.572-8.045-4.643-1.892,6.391a14.352,14.352,0,0,0-4.136-.424l-5.936-7.239-5.687,3.247,3.268,8.707a14.48,14.48,0,0,0-1.717,3.785l-6.525-1.6v9.234l6.525,5.925a43.434,43.434,0,0,0,1.717,5.76l-3.268,4.933,5.687,9.813,5.936-.331a45.209,45.209,0,0,0,4.136,4.374l1.892,8.572,8.045,4.643,1.882-6.391a14.4,14.4,0,0,0,4.136.424l5.946,7.239,5.687-3.237-3.247-8.717a14.477,14.477,0,0,0,1.717-3.785Zm-26.658-9.007c-5.294-3.1-9.6-10.465-9.6-16.545s4.3-8.521,9.6-5.46,9.6,10.465,9.6,16.545S287.7,164.825,282.409,161.764Z" transform="translate(981.799 156.848)" fill="#3284c8"/>
      <path id="Path_147" data-name="Path 147" d="M301.726,152.52c-.269-.9-.569-1.789-.9-2.678l2.192-3.288c.124-.972.228-1.975.279-3.009l-4.891-8.438-5.936.331a42.883,42.883,0,0,0-4.136-4.374l-1.882-8.572-8.045-4.643-1.892,6.391a14.352,14.352,0,0,0-4.136-.424l-5.936-7.239-5.687,3.247,3.268,8.707a14.48,14.48,0,0,0-1.717,3.785l-6.525-1.6v9.234l6.525,5.925a43.434,43.434,0,0,0,1.717,5.76l-2.761,4.136a50.742,50.742,0,0,0,9.007,6.742C284.911,171.05,297.372,166.4,301.726,152.52Zm-19.317-12.76c5.294,3.1,9.6,10.465,9.6,16.545s-4.3,8.521-9.6,5.46-9.6-10.465-9.6-16.545S277.073,136.7,282.409,139.759Z" transform="translate(981.799 156.848)" fill="#76bdf8"/>
      <path id="Path_148" data-name="Path 148" d="M302.391,153.7a32.606,32.606,0,0,1-.693-3.257l2.906-5.419-5.563-9.307-5.7.3a43.982,43.982,0,0,0-4.136-4.374l-2.4-9.11-7.528-4.136-1.892,6.463a14.4,14.4,0,0,0-4.136-.424l-6.422-7.766-5.17,3.826,3.278,8.707a14.231,14.231,0,0,0-1.727,3.774l-6.515-1.6v9.2l6.515,5.936a45.139,45.139,0,0,0,1.727,5.76l-2.761,4.136a49.822,49.822,0,0,0,9,6.742C285.794,171.641,298.068,167.587,302.391,153.7Zm-19.11-13.329c5.294,3.1,9.6,10.465,9.6,16.545s-4.3,8.521-9.6,5.46S273.7,151.921,273.7,145.83,277.987,137.268,283.281,140.371Z" transform="translate(981.486 156.816)" fill="#3d96df"/>
      <path id="Path_149" data-name="Path 149" d="M298.254,121.808l4.415-2.564-8.055-4.653-4.405,2.575Z" transform="translate(969.977 157.529)" fill="#76bdf8"/>
      <path id="Path_151" data-name="Path 151" d="M289.616,144.921c-7.239-4.136-13-.827-13,7.4s5.811,18.282,13,22.419,12.988.827,13-7.4S296.793,149.057,289.616,144.921Zm0,28.168c-6.422-3.681-11.592-12.605-11.592-19.927s5.17-10.279,11.561-6.587,11.551,12.605,11.551,19.927S296,176.781,289.616,173.089Z" transform="translate(974.644 147.726)" fill="#526e75"/>
      <path id="Path_152" data-name="Path 152" d="M288.844,145.677c-7.177-4.136-13-.827-13,7.414s5.822,18.272,13,22.419,13,.827,13-7.414S296.021,149.824,288.844,145.677Zm0,25.935c-5.294-3.1-9.6-10.475-9.6-16.545s4.3-8.531,9.6-5.481,9.6,10.475,9.6,16.556S294.149,174.672,288.844,171.612Z" transform="translate(974.909 147.466)" fill="#91d3e2"/>
      <path id="Path_153" data-name="Path 153" d="M288.844,145.677c-7.177-4.136-13-.827-13,7.414a25.851,25.851,0,0,0,3.361,11.944l.579.352a22.422,22.422,0,0,0,4.178,1.913c-2.844-3.557-4.757-8.19-4.757-12.243,0-6.08,4.3-8.531,9.6-5.481,4.188,2.42,7.735,7.549,9.048,12.585a16.275,16.275,0,0,0,1.344-4.529C296.858,152.647,293.094,148.138,288.844,145.677Z" transform="translate(974.909 147.466)" fill="#a2e9f4"/>
    </g>
    <g id="Group_10" data-name="Group 10">
      <path id="Path_154" data-name="Path 154" d="M295.185,169.98a3.33,3.33,0,0,0,.889-2.513,9.513,9.513,0,0,0-4.25-7.445,3.391,3.391,0,0,0-2.44-.538l-11.034,6.442a3.423,3.423,0,0,0-.776,2.389,9.565,9.565,0,0,0,4.25,7.456,3.267,3.267,0,0,0,2.637.476Z" transform="translate(974.318 142.128)" fill="#ffdb80"/>
      <path id="Path_155" data-name="Path 155" d="M294.5,164.5a1.783,1.783,0,0,1-.217.259l-10.785,6.277a3.216,3.216,0,0,1-2.627-.486,8.375,8.375,0,0,1-2.709-2.74,3.536,3.536,0,0,0-.662,2.244,9.565,9.565,0,0,0,4.25,7.456,3.268,3.268,0,0,0,2.637.476l10.775-6.266a3.33,3.33,0,0,0,.889-2.513A9.058,9.058,0,0,0,294.5,164.5Z" transform="translate(974.344 140.39)" fill="#f7d166"/>
      <path id="Path_156" data-name="Path 156" d="M286,176.345a9.544,9.544,0,0,0-4.25-7.445c-2.347-1.375-4.25-.269-4.25,2.461a9.565,9.565,0,0,0,4.25,7.456C284.1,180.191,286,179.085,286,176.345Z" transform="translate(974.341 139.082)" fill="#e8bb56"/>
      <path id="Path_157" data-name="Path 157" d="M281.563,178.029l1.892,3.35c1.717.869,3.1.383,3.681-1.117l-3.433-4.881Z" transform="translate(972.946 136.653)" fill="#e0a93b"/>
    </g>
    <g id="Group_11" data-name="Group 11">
      <path id="Path_158" data-name="Path 158" d="M252.8,178.573a1.53,1.53,0,0,0,.414-1.158,4.384,4.384,0,0,0-1.985-3.433,1.613,1.613,0,0,0-1.148-.248l-59.832,34.828a1.6,1.6,0,0,0-.362,1.117,4.384,4.384,0,0,0,1.985,3.433,1.593,1.593,0,0,0,1.241.227Z" transform="translate(1004.43 137.226)" fill="#e05a36"/>
      <path id="Path_159" data-name="Path 159" d="M252.468,175.123a3.868,3.868,0,0,0-1.241-1.22,1.613,1.613,0,0,0-1.148-.248l-59.832,34.879a1.6,1.6,0,0,0-.362,1.117,3.94,3.94,0,0,0,.455,1.706Z" transform="translate(1004.43 137.253)" fill="#f96243"/>
    </g>
    <g id="Group_12" data-name="Group 12">
      <path id="Path_160" data-name="Path 160" d="M192.488,162.9c-16.545-9.555-29.988-1.9-29.988,17.093s13.443,42.139,29.988,51.7,29.988,1.9,29.988-17.083S209.033,172.464,192.488,162.9Zm0,59.79c-12.223-7.063-22.129-24.146-22.129-38.168s9.906-19.647,22.129-12.626,22.129,24.156,22.129,38.178S204.71,229.742,192.488,222.689Z" transform="translate(1013.833 142.353)" fill="#7593a0"/>
      <path id="Path_161" data-name="Path 161" d="M228.7,223.627V202.336l-15.035-13.671a100.688,100.688,0,0,0-4-13.288L217.215,164l-13.122-22.636-13.691.765a99.873,99.873,0,0,0-9.586-10.082l-4.343-19.761L157.963,101.6,148,107.728l5.615,8.614a33.732,33.732,0,0,0-9.586-1.034L130.343,98.763,117.2,106.3l7.559,20.071a33.317,33.317,0,0,0-3.961,8.707l-15.035-3.723-10.134,6.2L120.8,166.278a100.222,100.222,0,0,0,3.961,13.288L117.21,190.94l13.122,22.636,13.691-.755a102.18,102.18,0,0,0,9.586,10.082L166.4,259.21l10.113-5.832,4.343-14.746a33.742,33.742,0,0,0,9.586,1.034l13.691,16.545,13.122-7.476-7.59-20.092a33.007,33.007,0,0,0,3.961-8.707l4.86,9.534ZM167.27,202.863c-12.223-7.052-22.119-24.125-22.119-38.137s9.9-19.647,22.119-12.616,22.109,24.135,22.109,38.147S179.451,209.916,167.27,202.863Z" transform="translate(1036.797 162.965)" fill="#236fae"/>
      <path id="Path_162" data-name="Path 162" d="M136.046,196.757,128.5,208.132l13.122,22.636a185.929,185.929,0,0,1,41.8-8.521,25.425,25.425,0,0,1-4.891-2.2c-12.223-7.052-22.119-24.125-22.119-38.137,0-7.425,2.782-12.492,7.239-14.58a65.147,65.147,0,0,0-16.214-13.712,35.065,35.065,0,0,0-14.094-4.881c-.455,1.106-.889,2.254-1.251,3.464v31.239a100.221,100.221,0,0,0,3.961,13.319Z" transform="translate(1025.51 145.804)" fill="#3f585e"/>
      <path id="Path_163" data-name="Path 163" d="M218.507,232.646v-21.3l-13.919-13.557A112.4,112.4,0,0,0,199.966,184l7.094-10.961-13.122-22.636-13.691.765a101.16,101.16,0,0,0-9.586-10.093l-4.343-19.751-18.562-10.713-4.291,14.736a33.741,33.741,0,0,0-9.586-1.034l-13.691-16.545-13.174,7.507,7.549,20.071a33.163,33.163,0,0,0-3.961,8.707l-15.035-3.64v21.3l15.035,13.66a100.682,100.682,0,0,0,3.961,13.288l-7.549,11.375,13.112,22.636,13.7-.765a98.787,98.787,0,0,0,9.586,10.082l4.343,19.761,18.562,10.682L170.66,247.7a33.712,33.712,0,0,0,9.586.982l13.691,16.545,13.122-7.487-7.549-20.123a33.234,33.234,0,0,0,3.96-8.717Zm-61.476-20.764c-12.212-7.052-22.109-24.125-22.109-38.147s9.9-19.647,22.109-12.605,22.119,24.125,22.119,38.147S169.254,218.934,157.031,211.882Z" transform="translate(1036.819 159.871)" fill="#3284c8"/>
      <path id="Path_164" data-name="Path 164" d="M201.59,190.549c-.631-2.068-1.313-4.136-2.068-6.153l5.046-7.6c.3-2.244.517-4.55.651-6.939l-11.271-19.451-13.691.765a101.16,101.16,0,0,0-9.586-10.093l-4.343-19.751-18.572-10.713-4.291,14.736a33.741,33.741,0,0,0-9.586-1.034l-13.691-16.545-13.174,7.507,7.549,20.071a33.163,33.163,0,0,0-3.961,8.707l-15.035-3.64v21.3l15.035,13.66a100.682,100.682,0,0,0,3.961,13.288l-6.37,9.565a116.852,116.852,0,0,0,20.8,15.5C162.822,233.287,191.538,222.564,201.59,190.549ZM157.031,161.1c12.212,7.052,22.119,24.125,22.119,38.147s-9.9,19.647-22.119,12.605-22.109-24.125-22.109-38.147S144.819,154.077,157.031,161.1Z" transform="translate(1036.819 159.871)" fill="#76bdf8"/>
      <path id="Path_165" data-name="Path 165" d="M203.558,192.528q-.931-3.1-2.068-6.2l7.032-12.047L194.81,151.434l-12.554,1.717a99.872,99.872,0,0,0-9.586-10.082l-4.343-19.761-18.6-10.723-4.343,14.736a33.742,33.742,0,0,0-9.586-1.034L122.1,109.74l-13.122,7.507,7.549,20.071a33.318,33.318,0,0,0-3.961,8.707l-15.035-3.692v21.3l15.035,13.65a100.225,100.225,0,0,0,3.961,13.288l-6.37,9.576a116.737,116.737,0,0,0,20.764,15.511C164.822,235.256,193.507,224.543,203.558,192.528ZM159.01,163.1c12.212,7.052,22.109,24.135,22.109,38.147s-9.9,19.647-22.109,12.605S136.9,189.695,136.9,175.7,146.787,156.046,159.01,163.1Z" transform="translate(1036.143 159.195)" fill="#3d96df"/>
      <path id="Path_166" data-name="Path 166" d="M193.613,119.716l10.175-5.925-18.562-10.713L175.052,109Z" transform="translate(1009.523 161.483)" fill="#76bdf8"/>
      <path id="Path_167" data-name="Path 167" d="M232.016,170.175l10.186-6.1,8.769-.393L240.8,169.606Z" transform="translate(989.961 140.672)" fill="#76bdf8"/>
      <path id="Path_168" data-name="Path 168" d="M173.683,172.978c-16.545-9.555-29.988-1.9-29.988,17.093s13.443,42.128,29.988,51.7,29.988,1.9,29.988-17.093S190.228,182.533,173.683,172.978Zm0,64.961c-14.715-8.49-26.638-29.068-26.638-45.954s11.923-23.68,26.648-15.191,26.627,29.068,26.627,45.954-11.923,23.691-26.648,15.17Z" transform="translate(1020.291 138.892)" fill="#526e75"/>
      <path id="Path_169" data-name="Path 169" d="M171.919,174.742c-16.545-9.555-29.988-1.9-29.988,17.093s13.443,42.128,29.988,51.7,29.988,1.913,29.988-17.083S188.465,184.3,171.919,174.742Zm0,59.78c-12.223-7.052-22.129-24.146-22.129-38.168s9.906-19.647,22.129-12.616,22.129,24.146,22.129,38.178S184.132,241.626,171.919,234.522Z" transform="translate(1020.896 138.286)" fill="#91d3e2"/>
      <path id="Path_170" data-name="Path 170" d="M171.919,174.742c-16.545-9.555-29.988-1.9-29.988,17.093,0,8.872,2.937,18.613,7.745,27.537.455.269.889.548,1.344.807a51.126,51.126,0,0,0,9.72,4.405c-6.556-8.19-10.961-18.882-10.961-28.23,0-14.022,9.906-19.647,22.129-12.616,9.638,5.563,17.817,17.383,20.847,29.006a37.042,37.042,0,0,0,3.1-10.444C190.409,190.812,181.712,180.4,171.919,174.742Z" transform="translate(1020.896 138.286)" fill="#a2e9f4"/>
      <path id="Path_184" data-name="Path 184" d="M184.835,265.923a35.061,35.061,0,0,1-5.295-3.857c.341,3.371.589,6.649.745,9.8a44.3,44.3,0,0,0,4.6,3.1,29.7,29.7,0,0,0,10.7,3.919c-.9-3.206-1.8-6.556-2.678-10A21.911,21.911,0,0,1,184.835,265.923Z" transform="translate(1007.981 106.886)" fill="#cafaff"/>
      <path id="Path_185" data-name="Path 185" d="M179.271,183.536c0-3.051.062-6.008.279-8.841-5.512-3.164-10.672-4.405-15.1-3.971.579,3.35,1.21,6.846,1.882,10.444C169.943,180.124,174.421,180.827,179.271,183.536Z" transform="translate(1013.162 138.282)" fill="#cafaff"/>
    </g>
    <g id="Group_13" data-name="Group 13">
      <path id="Path_171" data-name="Path 171" d="M189.454,232.014a7.1,7.1,0,0,0,1.954-5.419c0-5.9-4.136-13.1-9.307-16.07a7.548,7.548,0,0,0-5.346-1.158c-.083,0-24.29,13.9-24.29,13.9a7.332,7.332,0,0,0-1.706,5.17c0,5.894,4.136,13.091,9.307,16.07a7.239,7.239,0,0,0,5.76,1.034Z" transform="translate(1017.87 125.014)" fill="#ffdb80"/>
      <path id="Path_172" data-name="Path 172" d="M189.217,219.968l-34.528,21.023-.269-.341a19.441,19.441,0,0,0,6.918,7.538,7.239,7.239,0,0,0,5.76,1.034l23.618-13.536a7.1,7.1,0,0,0,1.954-5.419A19.472,19.472,0,0,0,189.217,219.968Z" transform="translate(1016.608 121.342)" fill="#f7d166"/>
      <path id="Path_173" data-name="Path 173" d="M169.411,245.779c0-5.9-4.136-13.1-9.307-16.07s-9.307-.6-9.307,5.315,4.136,13.091,9.307,16.07S169.411,251.683,169.411,245.779Z" transform="translate(1017.852 118.436)" fill="#e8bb56"/>
      <path id="Path_174" data-name="Path 174" d="M159.57,249.775l3.1,5.863c.155.093.31.207.476.3,4.229,2.44,7.8,1.251,8.934-2.533l-8.707-10.868Z" transform="translate(1014.839 113.592)" fill="#e0a93b"/>
      <path id="Path_175" data-name="Path 175" d="M159.135,250.507a3.3,3.3,0,0,0,.91-2.513,9.493,9.493,0,0,0-4.322-7.445,3.516,3.516,0,0,0-2.471-.538l-11.261,6.442a3.433,3.433,0,0,0-.786,2.389,9.513,9.513,0,0,0,4.322,7.456,3.34,3.34,0,0,0,2.668.476Z" transform="translate(1021.148 114.473)" fill="#ffdb80"/>
      <path id="Path_176" data-name="Path 176" d="M144.766,257.186a8.033,8.033,0,0,0,1.954,1.686,3.34,3.34,0,0,0,2.668.476l10.972-6.267a3.3,3.3,0,0,0,.91-2.513,8.067,8.067,0,0,0-.724-3.1Z" transform="translate(1019.923 111.899)" fill="#f7d166"/>
      <path id="Path_177" data-name="Path 177" d="M149.825,256.882a9.514,9.514,0,0,0-4.312-7.445c-2.389-1.386-4.322-.279-4.322,2.451a9.514,9.514,0,0,0,4.322,7.456C147.871,260.719,149.825,259.612,149.825,256.882Z" transform="translate(1021.151 111.428)" fill="#e8bb56"/>
      <path id="Path_178" data-name="Path 178" d="M148.645,257.418a4.136,4.136,0,0,0-1.892-3.268c-1.034-.6-1.892-.114-1.892,1.034a4.188,4.188,0,0,0,1.892,3.278C147.8,259.114,148.645,258.628,148.645,257.418Z" transform="translate(1019.891 109.692)" fill="#b26b26"/>
      <path id="Path_179" data-name="Path 179" d="M148.108,257.894a2.44,2.44,0,0,0-1.1-1.892c-.61-.352-1.1-.072-1.1.631a2.441,2.441,0,0,0,1.1,1.851C147.622,258.876,148.108,258.6,148.108,257.894Z" transform="translate(1019.528 109.02)" fill="#e8bb56"/>
      <path id="Path_180" data-name="Path 180" d="M191.64,222.2a16.949,16.949,0,0,0-6.256-7.135,10.118,10.118,0,0,0-1.272-.61s-8.035,4.85-8.273,4.746v3.216a17.869,17.869,0,0,1,5.863,7.59s8.2-4.922,8.273-4.757Z" transform="translate(1009.252 123.235)" fill="#ffd766"/>
      <path id="Path_181" data-name="Path 181" d="M178.424,222.569l-1.386-2.461c.186.083,6.37-3.526,8.573-4.839l-.227-.155a10.118,10.118,0,0,0-1.272-.61s-8.035,4.85-8.273,4.746v3.216a17.869,17.869,0,0,1,5.863,7.59l1.985-1.189A17.507,17.507,0,0,0,178.424,222.569Z" transform="translate(1009.252 123.219)" fill="#ffe697"/>
      <path id="Path_182" data-name="Path 182" d="M194.7,226.252c-3.992,2.347-6.018,3.516-9.048,5.067-.631,1.717.072.155-.9,2.74,0,0,8.2-4.922,8.273-4.757Z" transform="translate(1006.191 119.184)" fill="#e0a93b"/>
      <path id="Path_183" data-name="Path 183" d="M177.1,222.305a10.23,10.23,0,0,0-1.272-.62V224.9a17.869,17.869,0,0,1,5.863,7.59l1.665-3.1A16.856,16.856,0,0,0,177.1,222.305Z" transform="translate(1009.258 120.753)" fill="#e8bb56"/>
    </g>
    <g id="Group_14" data-name="Group 14">
      <path id="Path_186" data-name="Path 186" d="M239.018,44.755l55.261,31.9c2.8,10.548,8.273,24.415,17,29.461,6.908,3.992,14.973.321,18.613-3.65L311.445,91.815v-26.2l13.908,12.978,4.571-2.337c-3.64-8.169-9.731-15.677-16.638-19.647-8.748-5.057-16.173-2.947-18.975,4.353L239.018,29.037c-2.813-10.548-10.227-21.219-18.975-26.266C216.248.579,212.7-.269,209.7.072c-2.492.279-8.273,3.2-9.875,4.984l22.057,8.821v26.2L203.425,29.429c-1.189.6-1.5.838-4.529,2.234,3.692,7.89,14.829,17.341,21.178,21C228.791,57.722,236.205,52.055,239.018,44.755Z" transform="translate(1001.334 196.881)" fill="#b9680c"/>
      <path id="Path_187" data-name="Path 187" d="M234.425,48.4l55.251,31.9c2.813,10.548,10.237,21.219,18.975,26.266,6.908,3.992,13.009,3.516,16.649-.465L306.841,95.453v-26.2L325.289,79.9c-3.64-8.169-9.741-15.687-16.649-19.647C299.9,55.2,292.478,57.306,289.665,64.6l-55.24-31.922c-2.771-10.537-10.237-21.209-18.975-26.245-6.918-3.981-13.009-3.516-16.649.465l18.448,10.651V43.728L198.8,33.077c3.64,8.18,9.731,15.687,16.649,19.647C224.188,57.8,231.654,55.7,234.425,48.4Z" transform="translate(1001.367 195.622)" fill="#e67d05"/>
      <path id="Path_188" data-name="Path 188" d="M345.771,122V90.885s-6.2-.662-6.525,12.088S345.771,122,345.771,122Z" transform="translate(953.141 165.672)" fill="#f5a040"/>
      <path id="Path_189" data-name="Path 189" d="M240.788,61.663V30.175s6.939,9.069,6.2,20.619C246.383,60.825,240.788,61.663,240.788,61.663Z" transform="translate(986.948 186.518)" fill="#f5a040"/>
    </g>
  </g>
</svg>
